{"title":"War Bus (1986) DVDRip - RadioResearch","uid":8462972,"size":1127811009,"categoryP":"video","categoryS":"movies","magnet":"?xt=urn:btih:cd9a974f586a4aa4d86737beaa14e04eeea61945&amp;dn=War+Bus+%281986%29+DVDRip+-+RadioResearch&amp;tr=udp%3A%2F%2Ftracker.openbittorrent.com%3A80&amp;tr=udp%3A%2F%2Fopen.demonii.com%3A1337&amp;tr=udp%3A%2F%2Ftracker.coppersurfer.tk%3A6969&amp;tr=udp%3A%2F%2Fexodus.desync.com%3A6969","seeders":0,"leechers":1,"uploader":"RadioResearch","files":3,"time":1368286745,"description":"*******************************************************************************\n                     War Bus (1986) DVDRip - RadioResearch\n*******************************************************************************\n\n-------------------------------------------------------------------------------\n                              General Information\n-------------------------------------------------------------------------------\nType.................: Movie\n\n\n\nVideo Format.........: AVI\nVideo Bitrate........: 1579\nResolution...........: 640 x 480\nColor................: 8 bit\nFPS..................: 29.970\nSource...............: DVD 4x3\nOriginal Format......: NTSC\nGenre................: War\nIMDb Rating..........: 4.9\nMovie Information....: http://www.imdb.com/title/tt0901517/\n\n-------------------------------------------------------------------------------\n                               Post Information\n-------------------------------------------------------------------------------\nPosted by............: RadioResearch\nPosted on............: 5/11/2013\n\n-------------------------------------------------------------------------------\n                                 Release Notes\n-------------------------------------------------------------------------------\nSEEDBOX SUPPORTED!!\n\nAKA Warbus\n\nIn the heat of the Vietnam war, the VietCong launch a vicious attack on a \nChristian mission.  A group of soldiers organize the missionaries to get in a \nschool bus and together they flee the base and escape into the jungle.  The bus \nis stopped and commandeered by three battle-hardened US Marines on a mission and \nin desperate need of support.  The mission pushes on as the bus battles its way \nthrough the jungle, desperately fighting its way to safety.\n\nProbably one of the rarer and best-made of the Macaroni Combat genre.  Lots of \npyrotechnics and explosions and wonderful over-acting by the cast.  This film \nreally is a treat and it amuses me greatly to see how the Macaronifresser \nimagined Vietnam to be like.\n\nI've looked long and hard for a copy of the film worth puting up for download.  \nI think I've found it.  There are no dark parts in the film, as is seen on the \nmany copies to be had, and it isn't full of VHS tracking lines.  It looks to be \nmade from a 35mm print, however, I am led to believe it was ripped from VHS.  \nThe audio is a little overmodulated now and again.  There are small and very \nintermittent Japanese subtitles in the film which are hardcoded.  Couldn't \nrmeove them, but they are easily ignored.\n\nEnjoy this!  The film is quite good as an action/war film!\n\nRadioResearch\n\nGeneral\nComplete name                            : G:War Bus (1986) DVDRip - \nRadioResearchWAR_BUS-{RadioResearch}.avi\nFormat                                   : AVI\nFormat/Info                              : Audio Video Interleave\nFormat profile                           : OpenDML\nFile size                                : 1.05 GiB\nDuration                                 : 1h 35mn\nOverall bit rate                         : 1 579 Kbps\nMovie name                               : WAR_BUS.Title1.DVDRip\nWriting application                      : Lavf53.32.100\nOriginal source form/Name                : WAR_BUS\n\nVideo\nID                                       : 0\nFormat                                   : MPEG-4 Visual\nFormat profile                           : Advanced Simple@L5\nFormat settings, BVOP                    : 2\nFormat settings, QPel                    : No\nFormat settings, GMC                     : No warppoints\nFormat settings, Matrix                  : Default (H.263)\nMuxing mode                              : Packed bitstream\nCodec ID                                 : XVID\nCodec ID/Hint                            : XviD\nDuration                                 : 1h 35mn\nBit rate                                 : 1 372 Kbps\nWidth                                    : 640 pixels\nHeight                                   : 480 pixels\nDisplay aspect ratio                     : 4:3\nFrame rate                               : 29.970 fps\nColor space                              : YUV\nChroma subsampling                       : 4:2:0\nBit depth                                : 8 bits\nScan type                                : Progressive\nCompression mode                         : Lossy\nBits/(Pixel*Frame)                       : 0.149\nStream size                              : 934 MiB (87%)\nWriting library                          : XviD 64\n\nAudio\nID                                       : 1\nFormat                                   : AC-3\nFormat/Info                              : Audio Coding 3\nMode extension                           : CM (complete main)\nFormat settings, Endianness              : Big\nCodec ID                                 : 2000\nDuration                                 : 1h 35mn\nBit rate mode                            : Constant\nBit rate                                 : 192 Kbps\nChannel(s)                               : 2 channels\nChannel positions                        : Front: L R\nSampling rate                            : 48.0 KHz\nBit depth                                : 16 bits\nCompression mode                         : Lossy\nStream size                              : 131 MiB (12%)\nAlignment                                : Aligned on interleaves\nInterleave, duration                     : 32 ms (0.96 video frame)\n\nAVI FILE MD5 HASH  fd70bdd19a105f36c93302afb1c8c32b\n\n\n\n-------------------------------------------------------------------------------\nGenerated with Cool NFO Creator - http://fly.to/coolbeans\n-------------------------------------------------------------------------------\n","torrent":{"xt":"urn:btih:cd9a974f586a4aa4d86737beaa14e04eeea61945","amp;dn":"War+Bus+%281986%29+DVDRip+-+RadioResearch","amp;tr":["udp%3A%2F%2Ftracker.openbittorrent.com%3A80","udp%3A%2F%2Fopen.demonii.com%3A1337","udp%3A%2F%2Ftracker.coppersurfer.tk%3A6969","udp%3A%2F%2Fexodus.desync.com%3A6969"],"infoHash":"cd9a974f586a4aa4d86737beaa14e04eeea61945","infoHashBuffer":{"type":"Buffer","data":[205,154,151,79,88,106,74,164,216,103,55,190,170,20,224,78,238,166,25,69]},"announce":[],"urlList":[]}}